<?xml version="1.0" encoding="utf-8" standalone="no"?>
<!DOCTYPE svg PUBLIC "-//W3C//DTD SVG 1.1//EN"
  "http://www.w3.org/Graphics/SVG/1.1/DTD/svg11.dtd">
<svg xmlns:xlink="http://www.w3.org/1999/xlink" width="414pt" height="288pt" viewBox="0 0 414 288" xmlns="http://www.w3.org/2000/svg" version="1.1">
 <metadata>
  <rdf:RDF xmlns:dc="http://purl.org/dc/elements/1.1/" xmlns:cc="http://creativecommons.org/ns#" xmlns:rdf="http://www.w3.org/1999/02/22-rdf-syntax-ns#">
   <cc:Work>
    <dc:type rdf:resource="http://purl.org/dc/dcmitype/StillImage"/>
    <dc:date>2025-11-14T17:20:42.735062</dc:date>
    <dc:format>image/svg+xml</dc:format>
    <dc:creator>
     <cc:Agent>
      <dc:title>Matplotlib v3.10.1, https://matplotlib.org/</dc:title>
     </cc:Agent>
    </dc:creator>
   </cc:Work>
  </rdf:RDF>
 </metadata>
 <defs>
  <style type="text/css">*{stroke-linejoin: round; stroke-linecap: butt}</style>
 </defs>
 <g id="figure_1">
  <g id="patch_1">
   <path d="M 0 288 
L 414 288 
L 414 0 
L 0 0 
L 0 288 
z
" style="fill: none"/>
  </g>
  <g id="axes_1">
   <g id="patch_2">
    <path d="M 67.103125 241.036875 
L 403.2 241.036875 
L 403.2 10.8 
L 67.103125 10.8 
L 67.103125 241.036875 
z
" style="fill: none"/>
   </g>
   <g id="matplotlib.axis_1">
    <g id="xtick_1">
     <g id="line2d_1">
      <defs>
       <path id="m2f471fb8cf" d="M 0 0 
L 0 3.5 
" style="stroke: #000000; stroke-width: 0.8"/>
      </defs>
      <g>
       <use xlink:href="#m2f471fb8cf" x="82.36328" y="241.036875" style="stroke: #000000; stroke-width: 0.8"/>
      </g>
     </g>
     <g id="text_1">
      <!-- 0 -->
      <g transform="translate(77.27328 260.194375) scale(0.16 -0.16)">
       <defs>
        <path id="DejaVuSans-30" d="M 2034 4250 
Q 1547 4250 1301 3770 
Q 1056 3291 1056 2328 
Q 1056 1369 1301 889 
Q 1547 409 2034 409 
Q 2525 409 2770 889 
Q 3016 1369 3016 2328 
Q 3016 3291 2770 3770 
Q 2525 4250 2034 4250 
z
M 2034 4750 
Q 2819 4750 3233 4129 
Q 3647 3509 3647 2328 
Q 3647 1150 3233 529 
Q 2819 -91 2034 -91 
Q 1250 -91 836 529 
Q 422 1150 422 2328 
Q 422 3509 836 4129 
Q 1250 4750 2034 4750 
z
" transform="scale(0.015625)"/>
       </defs>
       <use xlink:href="#DejaVuSans-30"/>
      </g>
     </g>
    </g>
    <g id="xtick_2">
     <g id="line2d_2">
      <g>
       <use xlink:href="#m2f471fb8cf" x="133.289878" y="241.036875" style="stroke: #000000; stroke-width: 0.8"/>
      </g>
     </g>
     <g id="text_2">
      <!-- 5 -->
      <g transform="translate(128.199878 260.194375) scale(0.16 -0.16)">
       <defs>
        <path id="DejaVuSans-35" d="M 691 4666 
L 3169 4666 
L 3169 4134 
L 1269 4134 
L 1269 2991 
Q 1406 3038 1543 3061 
Q 1681 3084 1819 3084 
Q 2600 3084 3056 2656 
Q 3513 2228 3513 1497 
Q 3513 744 3044 326 
Q 2575 -91 1722 -91 
Q 1428 -91 1123 -41 
Q 819 9 494 109 
L 494 744 
Q 775 591 1075 516 
Q 1375 441 1709 441 
Q 2250 441 2565 725 
Q 2881 1009 2881 1497 
Q 2881 1984 2565 2268 
Q 2250 2553 1709 2553 
Q 1456 2553 1204 2497 
Q 953 2441 691 2322 
L 691 4666 
z
" transform="scale(0.015625)"/>
       </defs>
       <use xlink:href="#DejaVuSans-35"/>
      </g>
     </g>
    </g>
    <g id="xtick_3">
     <g id="line2d_3">
      <g>
       <use xlink:href="#m2f471fb8cf" x="184.216477" y="241.036875" style="stroke: #000000; stroke-width: 0.8"/>
      </g>
     </g>
     <g id="text_3">
      <!-- 10 -->
      <g transform="translate(174.036477 260.194375) scale(0.16 -0.16)">
       <defs>
        <path id="DejaVuSans-31" d="M 794 531 
L 1825 531 
L 1825 4091 
L 703 3866 
L 703 4441 
L 1819 4666 
L 2450 4666 
L 2450 531 
L 3481 531 
L 3481 0 
L 794 0 
L 794 531 
z
" transform="scale(0.015625)"/>
       </defs>
       <use xlink:href="#DejaVuSans-31"/>
       <use xlink:href="#DejaVuSans-30" transform="translate(63.623047 0)"/>
      </g>
     </g>
    </g>
    <g id="xtick_4">
     <g id="line2d_4">
      <g>
       <use xlink:href="#m2f471fb8cf" x="235.143075" y="241.036875" style="stroke: #000000; stroke-width: 0.8"/>
      </g>
     </g>
     <g id="text_4">
      <!-- 15 -->
      <g transform="translate(224.963075 260.194375) scale(0.16 -0.16)">
       <use xlink:href="#DejaVuSans-31"/>
       <use xlink:href="#DejaVuSans-35" transform="translate(63.623047 0)"/>
      </g>
     </g>
    </g>
    <g id="xtick_5">
     <g id="line2d_5">
      <g>
       <use xlink:href="#m2f471fb8cf" x="286.069673" y="241.036875" style="stroke: #000000; stroke-width: 0.8"/>
      </g>
     </g>
     <g id="text_5">
      <!-- 20 -->
      <g transform="translate(275.889673 260.194375) scale(0.16 -0.16)">
       <defs>
        <path id="DejaVuSans-32" d="M 1228 531 
L 3431 531 
L 3431 0 
L 469 0 
L 469 531 
Q 828 903 1448 1529 
Q 2069 2156 2228 2338 
Q 2531 2678 2651 2914 
Q 2772 3150 2772 3378 
Q 2772 3750 2511 3984 
Q 2250 4219 1831 4219 
Q 1534 4219 1204 4116 
Q 875 4013 500 3803 
L 500 4441 
Q 881 4594 1212 4672 
Q 1544 4750 1819 4750 
Q 2544 4750 2975 4387 
Q 3406 4025 3406 3419 
Q 3406 3131 3298 2873 
Q 3191 2616 2906 2266 
Q 2828 2175 2409 1742 
Q 1991 1309 1228 531 
z
" transform="scale(0.015625)"/>
       </defs>
       <use xlink:href="#DejaVuSans-32"/>
       <use xlink:href="#DejaVuSans-30" transform="translate(63.623047 0)"/>
      </g>
     </g>
    </g>
    <g id="xtick_6">
     <g id="line2d_6">
      <g>
       <use xlink:href="#m2f471fb8cf" x="336.996271" y="241.036875" style="stroke: #000000; stroke-width: 0.8"/>
      </g>
     </g>
     <g id="text_6">
      <!-- 25 -->
      <g transform="translate(326.816271 260.194375) scale(0.16 -0.16)">
       <use xlink:href="#DejaVuSans-32"/>
       <use xlink:href="#DejaVuSans-35" transform="translate(63.623047 0)"/>
      </g>
     </g>
    </g>
    <g id="xtick_7">
     <g id="line2d_7">
      <g>
       <use xlink:href="#m2f471fb8cf" x="387.922869" y="241.036875" style="stroke: #000000; stroke-width: 0.8"/>
      </g>
     </g>
     <g id="text_7">
      <!-- 30 -->
      <g transform="translate(377.742869 260.194375) scale(0.16 -0.16)">
       <defs>
        <path id="DejaVuSans-33" d="M 2597 2516 
Q 3050 2419 3304 2112 
Q 3559 1806 3559 1356 
Q 3559 666 3084 287 
Q 2609 -91 1734 -91 
Q 1441 -91 1130 -33 
Q 819 25 488 141 
L 488 750 
Q 750 597 1062 519 
Q 1375 441 1716 441 
Q 2309 441 2620 675 
Q 2931 909 2931 1356 
Q 2931 1769 2642 2001 
Q 2353 2234 1838 2234 
L 1294 2234 
L 1294 2753 
L 1863 2753 
Q 2328 2753 2575 2939 
Q 2822 3125 2822 3475 
Q 2822 3834 2567 4026 
Q 2313 4219 1838 4219 
Q 1578 4219 1281 4162 
Q 984 4106 628 3988 
L 628 4550 
Q 988 4650 1302 4700 
Q 1616 4750 1894 4750 
Q 2613 4750 3031 4423 
Q 3450 4097 3450 3541 
Q 3450 3153 3228 2886 
Q 3006 2619 2597 2516 
z
" transform="scale(0.015625)"/>
       </defs>
       <use xlink:href="#DejaVuSans-33"/>
       <use xlink:href="#DejaVuSans-30" transform="translate(63.623047 0)"/>
      </g>
     </g>
    </g>
    <g id="text_8">
     <!-- Time [min] -->
     <g transform="translate(207.999219 275.120313) scale(0.1 -0.1)">
      <defs>
       <path id="DejaVuSans-54" d="M -19 4666 
L 3928 4666 
L 3928 4134 
L 2272 4134 
L 2272 0 
L 1638 0 
L 1638 4134 
L -19 4134 
L -19 4666 
z
" transform="scale(0.015625)"/>
       <path id="DejaVuSans-69" d="M 603 3500 
L 1178 3500 
L 1178 0 
L 603 0 
L 603 3500 
z
M 603 4863 
L 1178 4863 
L 1178 4134 
L 603 4134 
L 603 4863 
z
" transform="scale(0.015625)"/>
       <path id="DejaVuSans-6d" d="M 3328 2828 
Q 3544 3216 3844 3400 
Q 4144 3584 4550 3584 
Q 5097 3584 5394 3201 
Q 5691 2819 5691 2113 
L 5691 0 
L 5113 0 
L 5113 2094 
Q 5113 2597 4934 2840 
Q 4756 3084 4391 3084 
Q 3944 3084 3684 2787 
Q 3425 2491 3425 1978 
L 3425 0 
L 2847 0 
L 2847 2094 
Q 2847 2600 2669 2842 
Q 2491 3084 2119 3084 
Q 1678 3084 1418 2786 
Q 1159 2488 1159 1978 
L 1159 0 
L 581 0 
L 581 3500 
L 1159 3500 
L 1159 2956 
Q 1356 3278 1631 3431 
Q 1906 3584 2284 3584 
Q 2666 3584 2933 3390 
Q 3200 3197 3328 2828 
z
" transform="scale(0.015625)"/>
       <path id="DejaVuSans-65" d="M 3597 1894 
L 3597 1613 
L 953 1613 
Q 991 1019 1311 708 
Q 1631 397 2203 397 
Q 2534 397 2845 478 
Q 3156 559 3463 722 
L 3463 178 
Q 3153 47 2828 -22 
Q 2503 -91 2169 -91 
Q 1331 -91 842 396 
Q 353 884 353 1716 
Q 353 2575 817 3079 
Q 1281 3584 2069 3584 
Q 2775 3584 3186 3129 
Q 3597 2675 3597 1894 
z
M 3022 2063 
Q 3016 2534 2758 2815 
Q 2500 3097 2075 3097 
Q 1594 3097 1305 2825 
Q 1016 2553 972 2059 
L 3022 2063 
z
" transform="scale(0.015625)"/>
       <path id="DejaVuSans-20" transform="scale(0.015625)"/>
       <path id="DejaVuSans-5b" d="M 550 4863 
L 1875 4863 
L 1875 4416 
L 1125 4416 
L 1125 -397 
L 1875 -397 
L 1875 -844 
L 550 -844 
L 550 4863 
z
" transform="scale(0.015625)"/>
       <path id="DejaVuSans-6e" d="M 3513 2113 
L 3513 0 
L 2938 0 
L 2938 2094 
Q 2938 2591 2744 2837 
Q 2550 3084 2163 3084 
Q 1697 3084 1428 2787 
Q 1159 2491 1159 1978 
L 1159 0 
L 581 0 
L 581 3500 
L 1159 3500 
L 1159 2956 
Q 1366 3272 1645 3428 
Q 1925 3584 2291 3584 
Q 2894 3584 3203 3211 
Q 3513 2838 3513 2113 
z
" transform="scale(0.015625)"/>
       <path id="DejaVuSans-5d" d="M 1947 4863 
L 1947 -844 
L 622 -844 
L 622 -397 
L 1369 -397 
L 1369 4416 
L 622 4416 
L 622 4863 
L 1947 4863 
z
" transform="scale(0.015625)"/>
      </defs>
      <use xlink:href="#DejaVuSans-54"/>
      <use xlink:href="#DejaVuSans-69" transform="translate(57.958984 0)"/>
      <use xlink:href="#DejaVuSans-6d" transform="translate(85.742188 0)"/>
      <use xlink:href="#DejaVuSans-65" transform="translate(183.154297 0)"/>
      <use xlink:href="#DejaVuSans-20" transform="translate(244.677734 0)"/>
      <use xlink:href="#DejaVuSans-5b" transform="translate(276.464844 0)"/>
      <use xlink:href="#DejaVuSans-6d" transform="translate(315.478516 0)"/>
      <use xlink:href="#DejaVuSans-69" transform="translate(412.890625 0)"/>
      <use xlink:href="#DejaVuSans-6e" transform="translate(440.673828 0)"/>
      <use xlink:href="#DejaVuSans-5d" transform="translate(504.052734 0)"/>
     </g>
    </g>
   </g>
   <g id="matplotlib.axis_2">
    <g id="ytick_1">
     <g id="line2d_8">
      <defs>
       <path id="mccc0145fdb" d="M 0 0 
L -3.5 0 
" style="stroke: #000000; stroke-width: 0.8"/>
      </defs>
      <g>
       <use xlink:href="#mccc0145fdb" x="67.103125" y="185.316488" style="stroke: #000000; stroke-width: 0.8"/>
      </g>
     </g>
     <g id="text_9">
      <!-- 0.00 -->
      <g transform="translate(24.478125 191.395238) scale(0.16 -0.16)">
       <defs>
        <path id="DejaVuSans-2e" d="M 684 794 
L 1344 794 
L 1344 0 
L 684 0 
L 684 794 
z
" transform="scale(0.015625)"/>
       </defs>
       <use xlink:href="#DejaVuSans-30"/>
       <use xlink:href="#DejaVuSans-2e" transform="translate(63.623047 0)"/>
       <use xlink:href="#DejaVuSans-30" transform="translate(95.410156 0)"/>
       <use xlink:href="#DejaVuSans-30" transform="translate(159.033203 0)"/>
      </g>
     </g>
    </g>
    <g id="ytick_2">
     <g id="line2d_9">
      <g>
       <use xlink:href="#mccc0145fdb" x="67.103125" y="119.579343" style="stroke: #000000; stroke-width: 0.8"/>
      </g>
     </g>
     <g id="text_10">
      <!-- 0.02 -->
      <g transform="translate(24.478125 125.658093) scale(0.16 -0.16)">
       <use xlink:href="#DejaVuSans-30"/>
       <use xlink:href="#DejaVuSans-2e" transform="translate(63.623047 0)"/>
       <use xlink:href="#DejaVuSans-30" transform="translate(95.410156 0)"/>
       <use xlink:href="#DejaVuSans-32" transform="translate(159.033203 0)"/>
      </g>
     </g>
    </g>
    <g id="ytick_3">
     <g id="line2d_10">
      <g>
       <use xlink:href="#mccc0145fdb" x="67.103125" y="53.842199" style="stroke: #000000; stroke-width: 0.8"/>
      </g>
     </g>
     <g id="text_11">
      <!-- 0.04 -->
      <g transform="translate(24.478125 59.920949) scale(0.16 -0.16)">
       <defs>
        <path id="DejaVuSans-34" d="M 2419 4116 
L 825 1625 
L 2419 1625 
L 2419 4116 
z
M 2253 4666 
L 3047 4666 
L 3047 1625 
L 3713 1625 
L 3713 1100 
L 3047 1100 
L 3047 0 
L 2419 0 
L 2419 1100 
L 313 1100 
L 313 1709 
L 2253 4666 
z
" transform="scale(0.015625)"/>
       </defs>
       <use xlink:href="#DejaVuSans-30"/>
       <use xlink:href="#DejaVuSans-2e" transform="translate(63.623047 0)"/>
       <use xlink:href="#DejaVuSans-30" transform="translate(95.410156 0)"/>
       <use xlink:href="#DejaVuSans-34" transform="translate(159.033203 0)"/>
      </g>
     </g>
    </g>
    <g id="text_12">
     <!-- Rate Tracking Error [rad/s]  -->
     <g transform="translate(18.398438 193.219219) rotate(-90) scale(0.1 -0.1)">
      <defs>
       <path id="DejaVuSans-52" d="M 2841 2188 
Q 3044 2119 3236 1894 
Q 3428 1669 3622 1275 
L 4263 0 
L 3584 0 
L 2988 1197 
Q 2756 1666 2539 1819 
Q 2322 1972 1947 1972 
L 1259 1972 
L 1259 0 
L 628 0 
L 628 4666 
L 2053 4666 
Q 2853 4666 3247 4331 
Q 3641 3997 3641 3322 
Q 3641 2881 3436 2590 
Q 3231 2300 2841 2188 
z
M 1259 4147 
L 1259 2491 
L 2053 2491 
Q 2509 2491 2742 2702 
Q 2975 2913 2975 3322 
Q 2975 3731 2742 3939 
Q 2509 4147 2053 4147 
L 1259 4147 
z
" transform="scale(0.015625)"/>
       <path id="DejaVuSans-61" d="M 2194 1759 
Q 1497 1759 1228 1600 
Q 959 1441 959 1056 
Q 959 750 1161 570 
Q 1363 391 1709 391 
Q 2188 391 2477 730 
Q 2766 1069 2766 1631 
L 2766 1759 
L 2194 1759 
z
M 3341 1997 
L 3341 0 
L 2766 0 
L 2766 531 
Q 2569 213 2275 61 
Q 1981 -91 1556 -91 
Q 1019 -91 701 211 
Q 384 513 384 1019 
Q 384 1609 779 1909 
Q 1175 2209 1959 2209 
L 2766 2209 
L 2766 2266 
Q 2766 2663 2505 2880 
Q 2244 3097 1772 3097 
Q 1472 3097 1187 3025 
Q 903 2953 641 2809 
L 641 3341 
Q 956 3463 1253 3523 
Q 1550 3584 1831 3584 
Q 2591 3584 2966 3190 
Q 3341 2797 3341 1997 
z
" transform="scale(0.015625)"/>
       <path id="DejaVuSans-74" d="M 1172 4494 
L 1172 3500 
L 2356 3500 
L 2356 3053 
L 1172 3053 
L 1172 1153 
Q 1172 725 1289 603 
Q 1406 481 1766 481 
L 2356 481 
L 2356 0 
L 1766 0 
Q 1100 0 847 248 
Q 594 497 594 1153 
L 594 3053 
L 172 3053 
L 172 3500 
L 594 3500 
L 594 4494 
L 1172 4494 
z
" transform="scale(0.015625)"/>
       <path id="DejaVuSans-72" d="M 2631 2963 
Q 2534 3019 2420 3045 
Q 2306 3072 2169 3072 
Q 1681 3072 1420 2755 
Q 1159 2438 1159 1844 
L 1159 0 
L 581 0 
L 581 3500 
L 1159 3500 
L 1159 2956 
Q 1341 3275 1631 3429 
Q 1922 3584 2338 3584 
Q 2397 3584 2469 3576 
Q 2541 3569 2628 3553 
L 2631 2963 
z
" transform="scale(0.015625)"/>
       <path id="DejaVuSans-63" d="M 3122 3366 
L 3122 2828 
Q 2878 2963 2633 3030 
Q 2388 3097 2138 3097 
Q 1578 3097 1268 2742 
Q 959 2388 959 1747 
Q 959 1106 1268 751 
Q 1578 397 2138 397 
Q 2388 397 2633 464 
Q 2878 531 3122 666 
L 3122 134 
Q 2881 22 2623 -34 
Q 2366 -91 2075 -91 
Q 1284 -91 818 406 
Q 353 903 353 1747 
Q 353 2603 823 3093 
Q 1294 3584 2113 3584 
Q 2378 3584 2631 3529 
Q 2884 3475 3122 3366 
z
" transform="scale(0.015625)"/>
       <path id="DejaVuSans-6b" d="M 581 4863 
L 1159 4863 
L 1159 1991 
L 2875 3500 
L 3609 3500 
L 1753 1863 
L 3688 0 
L 2938 0 
L 1159 1709 
L 1159 0 
L 581 0 
L 581 4863 
z
" transform="scale(0.015625)"/>
       <path id="DejaVuSans-67" d="M 2906 1791 
Q 2906 2416 2648 2759 
Q 2391 3103 1925 3103 
Q 1463 3103 1205 2759 
Q 947 2416 947 1791 
Q 947 1169 1205 825 
Q 1463 481 1925 481 
Q 2391 481 2648 825 
Q 2906 1169 2906 1791 
z
M 3481 434 
Q 3481 -459 3084 -895 
Q 2688 -1331 1869 -1331 
Q 1566 -1331 1297 -1286 
Q 1028 -1241 775 -1147 
L 775 -588 
Q 1028 -725 1275 -790 
Q 1522 -856 1778 -856 
Q 2344 -856 2625 -561 
Q 2906 -266 2906 331 
L 2906 616 
Q 2728 306 2450 153 
Q 2172 0 1784 0 
Q 1141 0 747 490 
Q 353 981 353 1791 
Q 353 2603 747 3093 
Q 1141 3584 1784 3584 
Q 2172 3584 2450 3431 
Q 2728 3278 2906 2969 
L 2906 3500 
L 3481 3500 
L 3481 434 
z
" transform="scale(0.015625)"/>
       <path id="DejaVuSans-45" d="M 628 4666 
L 3578 4666 
L 3578 4134 
L 1259 4134 
L 1259 2753 
L 3481 2753 
L 3481 2222 
L 1259 2222 
L 1259 531 
L 3634 531 
L 3634 0 
L 628 0 
L 628 4666 
z
" transform="scale(0.015625)"/>
       <path id="DejaVuSans-6f" d="M 1959 3097 
Q 1497 3097 1228 2736 
Q 959 2375 959 1747 
Q 959 1119 1226 758 
Q 1494 397 1959 397 
Q 2419 397 2687 759 
Q 2956 1122 2956 1747 
Q 2956 2369 2687 2733 
Q 2419 3097 1959 3097 
z
M 1959 3584 
Q 2709 3584 3137 3096 
Q 3566 2609 3566 1747 
Q 3566 888 3137 398 
Q 2709 -91 1959 -91 
Q 1206 -91 779 398 
Q 353 888 353 1747 
Q 353 2609 779 3096 
Q 1206 3584 1959 3584 
z
" transform="scale(0.015625)"/>
       <path id="DejaVuSans-64" d="M 2906 2969 
L 2906 4863 
L 3481 4863 
L 3481 0 
L 2906 0 
L 2906 525 
Q 2725 213 2448 61 
Q 2172 -91 1784 -91 
Q 1150 -91 751 415 
Q 353 922 353 1747 
Q 353 2572 751 3078 
Q 1150 3584 1784 3584 
Q 2172 3584 2448 3432 
Q 2725 3281 2906 2969 
z
M 947 1747 
Q 947 1113 1208 752 
Q 1469 391 1925 391 
Q 2381 391 2643 752 
Q 2906 1113 2906 1747 
Q 2906 2381 2643 2742 
Q 2381 3103 1925 3103 
Q 1469 3103 1208 2742 
Q 947 2381 947 1747 
z
" transform="scale(0.015625)"/>
       <path id="DejaVuSans-2f" d="M 1625 4666 
L 2156 4666 
L 531 -594 
L 0 -594 
L 1625 4666 
z
" transform="scale(0.015625)"/>
       <path id="DejaVuSans-73" d="M 2834 3397 
L 2834 2853 
Q 2591 2978 2328 3040 
Q 2066 3103 1784 3103 
Q 1356 3103 1142 2972 
Q 928 2841 928 2578 
Q 928 2378 1081 2264 
Q 1234 2150 1697 2047 
L 1894 2003 
Q 2506 1872 2764 1633 
Q 3022 1394 3022 966 
Q 3022 478 2636 193 
Q 2250 -91 1575 -91 
Q 1294 -91 989 -36 
Q 684 19 347 128 
L 347 722 
Q 666 556 975 473 
Q 1284 391 1588 391 
Q 1994 391 2212 530 
Q 2431 669 2431 922 
Q 2431 1156 2273 1281 
Q 2116 1406 1581 1522 
L 1381 1569 
Q 847 1681 609 1914 
Q 372 2147 372 2553 
Q 372 3047 722 3315 
Q 1072 3584 1716 3584 
Q 2034 3584 2315 3537 
Q 2597 3491 2834 3397 
z
" transform="scale(0.015625)"/>
      </defs>
      <use xlink:href="#DejaVuSans-52"/>
      <use xlink:href="#DejaVuSans-61" transform="translate(67.232422 0)"/>
      <use xlink:href="#DejaVuSans-74" transform="translate(128.511719 0)"/>
      <use xlink:href="#DejaVuSans-65" transform="translate(167.720703 0)"/>
      <use xlink:href="#DejaVuSans-20" transform="translate(229.244141 0)"/>
      <use xlink:href="#DejaVuSans-54" transform="translate(261.03125 0)"/>
      <use xlink:href="#DejaVuSans-72" transform="translate(307.365234 0)"/>
      <use xlink:href="#DejaVuSans-61" transform="translate(348.478516 0)"/>
      <use xlink:href="#DejaVuSans-63" transform="translate(409.757812 0)"/>
      <use xlink:href="#DejaVuSans-6b" transform="translate(464.738281 0)"/>
      <use xlink:href="#DejaVuSans-69" transform="translate(522.648438 0)"/>
      <use xlink:href="#DejaVuSans-6e" transform="translate(550.431641 0)"/>
      <use xlink:href="#DejaVuSans-67" transform="translate(613.810547 0)"/>
      <use xlink:href="#DejaVuSans-20" transform="translate(677.287109 0)"/>
      <use xlink:href="#DejaVuSans-45" transform="translate(709.074219 0)"/>
      <use xlink:href="#DejaVuSans-72" transform="translate(772.257812 0)"/>
      <use xlink:href="#DejaVuSans-72" transform="translate(811.621094 0)"/>
      <use xlink:href="#DejaVuSans-6f" transform="translate(850.484375 0)"/>
      <use xlink:href="#DejaVuSans-72" transform="translate(911.666016 0)"/>
      <use xlink:href="#DejaVuSans-20" transform="translate(952.779297 0)"/>
      <use xlink:href="#DejaVuSans-5b" transform="translate(984.566406 0)"/>
      <use xlink:href="#DejaVuSans-72" transform="translate(1023.580078 0)"/>
      <use xlink:href="#DejaVuSans-61" transform="translate(1064.693359 0)"/>
      <use xlink:href="#DejaVuSans-64" transform="translate(1125.972656 0)"/>
      <use xlink:href="#DejaVuSans-2f" transform="translate(1189.449219 0)"/>
      <use xlink:href="#DejaVuSans-73" transform="translate(1223.140625 0)"/>
      <use xlink:href="#DejaVuSans-5d" transform="translate(1275.240234 0)"/>
      <use xlink:href="#DejaVuSans-20" transform="translate(1314.253906 0)"/>
     </g>
    </g>
   </g>
   <g id="line2d_11">
    <path d="M 82.380256 181.469319 
L 83.059277 182.264645 
L 83.789225 183.041776 
L 84.332442 183.945905 
L 85.079365 185.636097 
L 85.928142 188.148735 
L 86.997601 191.340729 
L 87.7615 192.722659 
L 88.763056 194.150315 
L 89.153493 194.364451 
L 89.493004 194.305215 
L 89.832515 194.004152 
L 90.239927 193.309724 
L 91.309386 191.237861 
L 92.226065 190.07526 
L 93.889667 188.049633 
L 94.585664 186.592981 
L 95.502342 184.116439 
L 97.437553 178.698129 
L 98.540963 176.336994 
L 99.712275 174.368023 
L 100.67988 173.152041 
L 101.596559 172.346411 
L 102.479286 171.858745 
L 103.345039 171.629672 
L 104.227766 171.628127 
L 105.144445 171.854001 
L 106.129026 172.333111 
L 107.21546 173.118592 
L 108.454674 174.299582 
L 109.999447 176.099381 
L 110.899151 177.403318 
L 111.680025 179.046184 
L 113.90382 184.039897 
L 114.769572 185.258893 
L 115.635324 186.101779 
L 116.552003 186.685719 
L 117.706339 187.143341 
L 122.442513 188.755466 
L 127.008931 190.711843 
L 128.519754 191.049528 
L 129.928723 191.140571 
L 131.354668 191.008449 
L 132.882466 190.63775 
L 134.647921 189.969549 
L 137.00752 188.816517 
L 142.864079 185.863489 
L 145.172751 185.00732 
L 147.362595 184.430166 
L 149.620341 184.066529 
L 152.081793 183.899195 
L 155.001585 183.932762 
L 159.00781 184.221081 
L 172.299653 185.326162 
L 178.308991 185.507789 
L 184.301354 185.478045 
L 185.846128 184.703119 
L 187.306023 184.219207 
L 188.816846 183.956586 
L 190.531375 183.892526 
L 192.789121 184.048977 
L 202.668881 184.983781 
L 205.334039 184.994241 
L 210.375772 185.074107 
L 224.075027 185.428865 
L 237.332918 185.359265 
L 267.023125 185.256991 
L 282.1653 185.319987 
L 286.731719 185.175452 
L 293.471005 185.226767 
L 307.696502 185.31569 
L 333.9237 185.443578 
L 334.161357 185.496891 
L 334.551794 185.560251 
L 334.789452 185.606385 
L 340.204647 186.405646 
L 340.61206 186.438047 
L 340.985521 186.478704 
L 341.342008 186.506302 
L 341.74942 186.541009 
L 342.071955 186.560266 
L 342.564246 186.600666 
L 342.869805 186.609933 
L 343.413022 186.648848 
L 343.684631 186.656435 
L 344.346677 186.690479 
L 344.60131 186.691219 
L 345.450086 186.723837 
L 345.670768 186.726726 
L 346.926958 186.743547 
L 349.23563 186.717642 
L 352.494933 186.602631 
L 352.749565 186.596663 
L 353.547416 186.548146 
L 353.819024 186.5414 
L 354.531996 186.492301 
L 354.803605 186.478944 
L 355.4317 186.43199 
L 355.686333 186.421243 
L 356.263501 186.377454 
L 356.518134 186.362859 
L 357.078326 186.315985 
L 357.349935 186.304495 
L 357.927103 186.249884 
L 358.198712 186.235666 
L 358.741929 186.184953 
L 359.013537 186.168602 
L 359.522803 186.122419 
L 359.794412 186.10464 
L 360.303678 186.054503 
L 360.575286 186.035806 
L 361.067577 185.991726 
L 361.339185 185.972671 
L 361.848451 185.922939 
L 362.12006 185.90406 
L 362.629326 185.854072 
L 362.900934 185.835828 
L 363.427176 185.783084 
L 363.681809 185.764003 
L 364.191075 185.718908 
L 364.462683 185.703139 
L 365.022876 185.646128 
L 365.277509 185.628198 
L 365.837701 185.575723 
L 366.092334 185.558185 
L 366.669502 185.506435 
L 366.924135 185.491592 
L 367.535255 185.437184 
L 367.789887 185.425489 
L 368.384031 185.372147 
L 368.621689 185.356903 
L 369.232808 185.307667 
L 369.470465 185.295892 
L 370.132511 185.244337 
L 370.370168 185.236427 
L 371.117092 185.178487 
L 371.337774 185.167264 
L 372.135624 185.114062 
L 372.373281 185.104648 
L 373.28996 185.049039 
L 373.527618 185.044968 
L 374.54615 184.986526 
L 374.766831 184.98155 
L 376.056972 184.921334 
L 376.277654 184.92164 
L 377.975207 184.866367 
L 380.538513 184.816919 
L 387.260824 184.844325 
L 387.922869 184.848176 
L 387.922869 184.848176 
" clip-path="url(#pdd9ed0eeb9)" style="fill: none; stroke: #2b737e; stroke-width: 1.5; stroke-linecap: square"/>
   </g>
   <g id="line2d_12">
    <path d="M 82.380256 218.491182 
L 83.534592 218.752476 
L 85.469803 219.005888 
L 86.148824 218.835521 
L 86.437408 218.598165 
L 86.759943 217.967913 
L 87.167356 216.614798 
L 87.625695 214.263406 
L 88.185888 210.10527 
L 89.679735 196.225371 
L 91.818652 177.691704 
L 92.956013 169.589005 
L 94.008496 163.724766 
L 95.213758 158.102279 
L 96.164388 154.630986 
L 96.792483 153.119145 
L 97.318724 152.365276 
L 97.760088 152.08022 
L 98.150526 152.082126 
L 98.540963 152.3133 
L 98.999302 152.864432 
L 99.661348 154.072554 
L 100.340369 155.866626 
L 101.155195 158.689626 
L 102.139776 162.947132 
L 103.362014 169.282725 
L 104.940739 178.723342 
L 107.334289 194.548044 
L 111.408417 221.490869 
L 112.426949 226.444264 
L 113.088994 228.692782 
L 113.649187 229.891498 
L 114.124502 230.43301 
L 114.514939 230.571529 
L 114.888401 230.461875 
L 115.295814 230.090591 
L 115.80508 229.288304 
L 116.433174 227.840235 
L 117.231024 225.389877 
L 118.283507 221.36966 
L 119.896183 214.207715 
L 123.121534 199.804824 
L 124.615381 194.217857 
L 125.905522 190.20616 
L 127.093809 187.207241 
L 128.197219 185.000266 
L 129.249702 183.374558 
L 130.268234 182.200792 
L 131.26979 181.381245 
L 132.271346 180.844383 
L 133.323829 180.532207 
L 134.478166 180.425612 
L 135.819233 180.532009 
L 137.533762 180.904499 
L 140.317749 181.771446 
L 145.342507 183.323862 
L 148.78854 184.132102 
L 152.523157 184.773944 
L 156.716114 185.26502 
L 161.350434 185.581026 
L 166.561922 185.70772 
L 173.33516 185.632976 
L 184.369256 185.27225 
L 186.06681 184.275827 
L 187.577632 183.643334 
L 189.020552 183.277751 
L 190.514399 183.131546 
L 192.14405 183.201127 
L 194.130188 183.521188 
L 197.457392 184.325561 
L 201.259911 185.170651 
L 203.806241 185.513694 
L 207.710614 185.574272 
L 223.429957 185.382007 
L 244.496593 185.286394 
L 254.019867 185.193695 
L 258.688139 185.112746 
L 266.072495 185.251636 
L 275.867378 185.363221 
L 283.57427 185.255071 
L 288.106737 185.125675 
L 294.302806 185.19844 
L 306.610068 185.351954 
L 334.025553 185.476434 
L 337.828072 186.242639 
L 338.082705 186.277493 
L 338.371289 186.335195 
L 338.948457 186.423355 
L 339.237041 186.473017 
L 339.610503 186.527822 
L 339.933038 186.58165 
L 340.3065 186.623632 
L 340.662986 186.677213 
L 340.968546 186.710592 
L 341.342008 186.75597 
L 341.715469 186.8008 
L 342.021029 186.82223 
L 342.462393 186.871428 
L 342.734001 186.889043 
L 343.243267 186.934237 
L 343.4979 186.943784 
L 344.058093 186.983778 
L 344.29575 186.986788 
L 345.008723 187.019436 
L 345.823548 187.0393 
L 346.129108 187.034044 
L 347.453199 187.034907 
L 347.656906 187.021082 
L 350.865281 186.858895 
L 351.93474 186.772038 
L 352.155422 186.757126 
L 352.936296 186.681347 
L 353.173954 186.666026 
L 353.869951 186.590637 
L 354.107608 186.568626 
L 354.718727 186.501706 
L 354.97336 186.483259 
L 355.533553 186.415494 
L 355.754235 186.392753 
L 356.263501 186.33389 
L 356.501158 186.314996 
L 357.0274 186.243978 
L 357.265057 186.22246 
L 357.774323 186.156685 
L 358.011981 186.133279 
L 358.487296 186.075164 
L 358.724953 186.050372 
L 359.183292 185.993538 
L 359.437925 185.97424 
L 359.91324 185.909822 
L 360.150898 185.883834 
L 360.592262 185.829955 
L 360.846895 185.810325 
L 361.32221 185.746334 
L 361.576843 185.727271 
L 362.052157 185.664792 
L 362.30679 185.645723 
L 362.782105 185.585584 
L 363.036738 185.569046 
L 363.529029 185.506038 
L 363.766686 185.48934 
L 364.242001 185.436065 
L 364.479659 185.416806 
L 364.971949 185.362422 
L 365.209607 185.347821 
L 365.718873 185.293185 
L 365.95653 185.27923 
L 366.499747 185.220323 
L 366.737404 185.209634 
L 367.229695 185.161012 
L 367.450377 185.145926 
L 367.959643 185.099289 
L 368.180325 185.087445 
L 368.706566 185.043942 
L 368.927248 185.035637 
L 369.504416 184.987891 
L 369.725098 184.983501 
L 370.353193 184.934275 
L 370.556899 184.92539 
L 371.20197 184.884887 
L 371.422652 184.87666 
L 372.135624 184.836673 
L 372.356306 184.83385 
L 373.188107 184.790746 
L 373.408789 184.79327 
L 374.325468 184.760443 
L 375.411902 184.719192 
L 375.615608 184.723005 
L 376.905749 184.701521 
L 378.620277 184.68926 
L 381.42124 184.709012 
L 387.922869 184.871121 
L 387.922869 184.871121 
" clip-path="url(#pdd9ed0eeb9)" style="fill: none; stroke: #5ea04b; stroke-width: 1.5; stroke-linecap: square"/>
   </g>
   <g id="line2d_13">
    <path d="M 82.380256 88.689159 
L 83.144155 101.410898 
L 83.195081 100.568064 
L 87.065503 38.327737 
L 87.846377 29.794545 
L 88.542374 24.504657 
L 89.017689 22.275924 
L 89.391151 21.423051 
L 89.645784 21.265313 
L 89.866466 21.392291 
L 90.138074 21.869394 
L 90.460609 22.931746 
L 90.9529 25.651684 
L 91.564019 30.39553 
L 92.327918 38.226829 
L 93.278548 50.435784 
L 98.099599 116.758137 
L 99.542519 132.314532 
L 101.019391 145.766904 
L 102.513238 157.388526 
L 104.108938 168.07105 
L 105.959271 178.918888 
L 108.743258 193.746349 
L 111.289588 206.452549 
L 112.104413 209.16116 
L 112.664606 210.411198 
L 113.088994 210.851091 
L 113.445481 210.932149 
L 113.818942 210.778453 
L 114.260306 210.335833 
L 114.85445 209.392423 
L 115.703226 207.574895 
L 117.248 203.627678 
L 119.709452 197.451737 
L 121.373054 193.888188 
L 122.951779 191.017289 
L 124.445626 188.748619 
L 125.837619 187.026002 
L 127.12776 185.768732 
L 128.366974 184.864657 
L 129.572237 184.257858 
L 130.777499 183.897236 
L 132.050664 183.748994 
L 133.476609 183.812563 
L 135.225089 184.125246 
L 138.11093 184.907372 
L 141.624865 185.795835 
L 144.069342 186.176119 
L 146.513818 186.327275 
L 149.28083 186.267506 
L 153.185203 185.936764 
L 161.316483 185.216081 
L 166.205436 185.049731 
L 172.571261 185.075928 
L 184.352281 185.164486 
L 185.302911 184.384964 
L 186.287492 183.862145 
L 187.339975 183.554239 
L 188.562213 183.435261 
L 190.106986 183.522594 
L 192.568439 183.916791 
L 197.661098 184.742654 
L 201.327814 185.076616 
L 204.179703 185.148859 
L 207.744565 185.09584 
L 252.509045 185.270581 
L 255.428836 185.133198 
L 260.249888 185.163549 
L 274.933723 185.316828 
L 283.217783 185.216368 
L 286.358257 185.11019 
L 292.04506 185.18482 
L 304.165591 185.324533 
L 333.787895 185.490815 
L 335.349644 185.934864 
L 340.79879 186.847326 
L 341.002497 186.859833 
L 341.240154 186.887806 
L 341.443861 186.894213 
L 341.715469 186.929297 
L 341.9022 186.932515 
L 342.190784 186.963049 
L 342.394491 186.965123 
L 342.70005 186.988528 
L 342.886781 186.992098 
L 343.243267 187.019792 
L 343.429998 187.013183 
L 343.786484 187.040702 
L 343.95624 187.03776 
L 344.346677 187.056391 
L 344.516432 187.044505 
L 345.025698 187.06786 
L 345.195453 187.064134 
L 345.823548 187.072655 
L 346.027255 187.065943 
L 346.960909 187.062868 
L 348.369878 187.001299 
L 357.502715 186.260193 
L 357.82525 186.220234 
L 357.995005 186.215363 
L 358.334516 186.164437 
L 358.504271 186.162728 
L 358.843782 186.109626 
L 359.013537 186.102591 
L 359.336072 186.056626 
L 359.505828 186.048961 
L 359.811387 186.010867 
L 359.981142 186.002742 
L 360.303678 185.952169 
L 360.473433 185.943942 
L 360.778992 185.905187 
L 360.948748 185.896988 
L 361.271283 185.849621 
L 361.441038 185.841707 
L 361.746598 185.803778 
L 361.916353 185.796162 
L 362.238888 185.748748 
L 362.408644 185.741925 
L 362.731179 185.697412 
L 362.900934 185.691417 
L 363.223469 185.648566 
L 363.393225 185.643488 
L 363.698784 185.598554 
L 363.868539 185.594411 
L 364.191075 185.55577 
L 364.36083 185.552955 
L 364.717316 185.500708 
L 364.887071 185.499678 
L 365.192631 185.458381 
L 365.362386 185.458789 
L 365.718873 185.413534 
L 365.871652 185.403511 
L 366.211163 185.369932 
L 366.363943 185.361692 
L 366.720429 185.324564 
L 366.873209 185.318152 
L 367.195744 185.299914 
L 367.535255 185.25719 
L 367.721985 185.260024 
L 368.078472 185.215325 
L 368.248227 185.207609 
L 368.570762 185.181349 
L 368.740517 185.176043 
L 369.097004 185.141786 
L 369.266759 185.139173 
L 369.640221 185.104606 
L 369.809976 185.104766 
L 370.200413 185.070588 
L 370.370168 185.07377 
L 370.811532 185.030311 
L 370.981288 185.036823 
L 371.439627 184.997219 
L 371.592407 184.992116 
L 372.050746 184.961653 
L 372.203526 184.959765 
L 372.695816 184.930863 
L 372.848596 184.932233 
L 373.391813 184.901619 
L 373.544593 184.906691 
L 374.189663 184.868179 
L 374.342443 184.877459 
L 375.072391 184.844852 
L 375.887217 184.815025 
L 376.039996 184.813167 
L 376.871798 184.80802 
L 377.703599 184.789501 
L 379.078617 184.763254 
L 379.231397 184.777015 
L 381.913531 184.786551 
L 386.785509 184.873463 
L 386.921313 184.873311 
L 387.736138 184.897413 
L 387.871943 184.899285 
L 387.922869 184.887534 
L 387.922869 184.887534 
" clip-path="url(#pdd9ed0eeb9)" style="fill: none; stroke: #bdab62; stroke-width: 1.5; stroke-linecap: square"/>
   </g>
   <g id="patch_3">
    <path d="M 67.103125 241.036875 
L 67.103125 10.8 
" style="fill: none; stroke: #000000; stroke-width: 0.8; stroke-linejoin: miter; stroke-linecap: square"/>
   </g>
   <g id="patch_4">
    <path d="M 403.2 241.036875 
L 403.2 10.8 
" style="fill: none; stroke: #000000; stroke-width: 0.8; stroke-linejoin: miter; stroke-linecap: square"/>
   </g>
   <g id="patch_5">
    <path d="M 67.103125 241.036875 
L 403.2 241.036875 
" style="fill: none; stroke: #000000; stroke-width: 0.8; stroke-linejoin: miter; stroke-linecap: square"/>
   </g>
   <g id="patch_6">
    <path d="M 67.103125 10.8 
L 403.2 10.8 
" style="fill: none; stroke: #000000; stroke-width: 0.8; stroke-linejoin: miter; stroke-linecap: square"/>
   </g>
   <g id="legend_1">
    <g id="patch_7">
     <path d="M 344.34 236.536875 
L 396.9 236.536875 
Q 398.7 236.536875 398.7 234.736875 
L 398.7 194.871094 
Q 398.7 193.071094 396.9 193.071094 
L 344.34 193.071094 
Q 342.54 193.071094 342.54 194.871094 
L 342.54 234.736875 
Q 342.54 236.536875 344.34 236.536875 
z
" style="fill: #ffffff; opacity: 0.8; stroke: #cccccc; stroke-linejoin: miter"/>
    </g>
    <g id="line2d_14">
     <path d="M 346.14 200.359687 
L 355.14 200.359687 
L 364.14 200.359687 
" style="fill: none; stroke: #2b737e; stroke-width: 1.5; stroke-linecap: square"/>
    </g>
    <g id="text_13">
     <!-- $\omega_{BR,0}$ -->
     <g transform="translate(371.34 203.509687) scale(0.09 -0.09)">
      <defs>
       <path id="DejaVuSans-Oblique-3c9" d="M 1369 -91 
Q 72 -91 434 1766 
Q 575 2500 1256 3500 
L 1875 3500 
Q 1231 2500 1088 1750 
Q 819 397 1519 397 
Q 2166 397 2478 2078 
L 3009 2078 
Q 2669 388 3316 397 
Q 4013 403 4275 1750 
Q 4419 2500 4169 3500 
L 4788 3500 
Q 5075 2500 4934 1766 
Q 4578 -94 3278 -91 
Q 2428 -88 2503 844 
Q 2194 -91 1369 -91 
z
" transform="scale(0.015625)"/>
       <path id="DejaVuSans-Oblique-42" d="M 1081 4666 
L 2694 4666 
Q 3350 4666 3675 4422 
Q 4000 4178 4000 3688 
Q 4000 3238 3720 2911 
Q 3441 2584 2988 2516 
Q 3375 2428 3569 2181 
Q 3763 1934 3763 1522 
Q 3763 819 3242 409 
Q 2722 0 1819 0 
L 172 0 
L 1081 4666 
z
M 1234 2228 
L 903 519 
L 1919 519 
Q 2491 519 2800 781 
Q 3109 1044 3109 1522 
Q 3109 1891 2904 2059 
Q 2700 2228 2247 2228 
L 1234 2228 
z
M 1606 4147 
L 1331 2741 
L 2272 2741 
Q 2775 2741 3058 2959 
Q 3341 3178 3341 3566 
Q 3341 3869 3150 4008 
Q 2959 4147 2541 4147 
L 1606 4147 
z
" transform="scale(0.015625)"/>
       <path id="DejaVuSans-Oblique-52" d="M 1613 4147 
L 1294 2491 
L 2106 2491 
Q 2584 2491 2879 2755 
Q 3175 3019 3175 3444 
Q 3175 3784 2976 3965 
Q 2778 4147 2406 4147 
L 1613 4147 
z
M 2772 2241 
Q 2972 2194 3105 2009 
Q 3238 1825 3413 1275 
L 3809 0 
L 3144 0 
L 2778 1197 
Q 2638 1659 2453 1815 
Q 2269 1972 1888 1972 
L 1191 1972 
L 806 0 
L 172 0 
L 1081 4666 
L 2503 4666 
Q 3150 4666 3495 4373 
Q 3841 4081 3841 3531 
Q 3841 3044 3547 2687 
Q 3253 2331 2772 2241 
z
" transform="scale(0.015625)"/>
       <path id="DejaVuSans-2c" d="M 750 794 
L 1409 794 
L 1409 256 
L 897 -744 
L 494 -744 
L 750 256 
L 750 794 
z
" transform="scale(0.015625)"/>
      </defs>
      <use xlink:href="#DejaVuSans-Oblique-3c9" transform="translate(0 0.3125)"/>
      <use xlink:href="#DejaVuSans-Oblique-42" transform="translate(83.740234 -16.09375) scale(0.7)"/>
      <use xlink:href="#DejaVuSans-Oblique-52" transform="translate(131.762695 -16.09375) scale(0.7)"/>
      <use xlink:href="#DejaVuSans-2c" transform="translate(180.400391 -16.09375) scale(0.7)"/>
      <use xlink:href="#DejaVuSans-30" transform="translate(216.289062 -16.09375) scale(0.7)"/>
     </g>
    </g>
    <g id="line2d_15">
     <path d="M 346.14 213.948281 
L 355.14 213.948281 
L 364.14 213.948281 
" style="fill: none; stroke: #5ea04b; stroke-width: 1.5; stroke-linecap: square"/>
    </g>
    <g id="text_14">
     <!-- $\omega_{BR,1}$ -->
     <g transform="translate(371.34 217.098281) scale(0.09 -0.09)">
      <use xlink:href="#DejaVuSans-Oblique-3c9" transform="translate(0 0.3125)"/>
      <use xlink:href="#DejaVuSans-Oblique-42" transform="translate(83.740234 -16.09375) scale(0.7)"/>
      <use xlink:href="#DejaVuSans-Oblique-52" transform="translate(131.762695 -16.09375) scale(0.7)"/>
      <use xlink:href="#DejaVuSans-2c" transform="translate(180.400391 -16.09375) scale(0.7)"/>
      <use xlink:href="#DejaVuSans-31" transform="translate(216.289062 -16.09375) scale(0.7)"/>
     </g>
    </g>
    <g id="line2d_16">
     <path d="M 346.14 227.536875 
L 355.14 227.536875 
L 364.14 227.536875 
" style="fill: none; stroke: #bdab62; stroke-width: 1.5; stroke-linecap: square"/>
    </g>
    <g id="text_15">
     <!-- $\omega_{BR,2}$ -->
     <g transform="translate(371.34 230.686875) scale(0.09 -0.09)">
      <use xlink:href="#DejaVuSans-Oblique-3c9" transform="translate(0 0.3125)"/>
      <use xlink:href="#DejaVuSans-Oblique-42" transform="translate(83.740234 -16.09375) scale(0.7)"/>
      <use xlink:href="#DejaVuSans-Oblique-52" transform="translate(131.762695 -16.09375) scale(0.7)"/>
      <use xlink:href="#DejaVuSans-2c" transform="translate(180.400391 -16.09375) scale(0.7)"/>
      <use xlink:href="#DejaVuSans-32" transform="translate(216.289062 -16.09375) scale(0.7)"/>
     </g>
    </g>
   </g>
  </g>
 </g>
 <defs>
  <clipPath id="pdd9ed0eeb9">
   <rect x="67.103125" y="10.8" width="336.096875" height="230.236875"/>
  </clipPath>
 </defs>
</svg>
